<svg width="32" height="33" viewBox="0 0 32 33" fill="none" xmlns="http://www.w3.org/2000/svg">
<path d="M2.06653 30.4224L4.03469 23.2322C2.82019 21.1275 2.18203 18.7417 2.18319 16.2952C2.18669 8.64653 8.41086 2.42236 16.0584 2.42236C19.7695 2.42353 23.2532 3.86903 25.8735 6.4917C28.4927 9.11436 29.9347 12.6004 29.9335 16.308C29.93 23.9579 23.7059 30.182 16.0584 30.182C13.7367 30.1809 11.4489 29.5987 9.42236 28.4927L2.06653 30.4224ZM9.76303 25.9809C11.7184 27.1417 13.585 27.837 16.0537 27.8382C22.4097 27.8382 27.5874 22.6652 27.5909 16.3057C27.5932 9.93336 22.44 4.76736 16.063 4.76503C9.70236 4.76503 4.5282 9.93803 4.52586 16.2964C4.5247 18.8922 5.28536 20.8359 6.56286 22.8694L5.39736 27.1254L9.76303 25.9809Z" fill="#00529C"/>
<path d="M23.0477 19.6061C22.9614 19.4614 22.7304 19.3751 22.3827 19.2012C22.0362 19.0274 20.3317 18.1886 20.0132 18.0731C19.6959 17.9576 19.4649 17.8992 19.2327 18.2469C19.0017 18.5934 18.3367 19.3751 18.1349 19.6061C17.9331 19.8371 17.7301 19.8662 17.3836 19.6924C17.0371 19.5186 15.9194 19.1534 14.5952 17.9716C13.5651 17.0522 12.8686 15.9171 12.6667 15.5694C12.4649 15.2229 12.6457 15.0351 12.8184 14.8624C12.9747 14.7072 13.1649 14.4576 13.3387 14.2546C13.5149 14.0539 13.5721 13.9092 13.6887 13.6771C13.8042 13.4461 13.7471 13.2431 13.6596 13.0692C13.5721 12.8966 12.8791 11.1897 12.5909 10.4956C12.3086 9.82008 12.0227 9.91108 11.8104 9.90058L11.1454 9.88892C10.9144 9.88892 10.5387 9.97525 10.2214 10.3229C9.90406 10.6706 9.00806 11.5082 9.00806 13.2151C9.00806 14.9219 10.2506 16.5704 10.4232 16.8014C10.5971 17.0324 12.8674 20.5347 16.3452 22.0362C17.1724 22.3932 17.8187 22.6067 18.3216 22.7666C19.1522 23.0302 19.9082 22.9929 20.5056 22.9042C21.1717 22.8051 22.5566 22.0654 22.8459 21.2557C23.1352 20.4449 23.1352 19.7507 23.0477 19.6061Z" fill="#FF6100"/>
</svg>
